<mxfile host="app.diagrams.net" agent="Mozilla/5.0 (Windows NT 10.0; Win64; x64) AppleWebKit/537.36 (KHTML, like Gecko) Chrome/130.0.0.0 Safari/537.36 Edg/130.0.0.0" version="24.8.4">
  <diagram id="C5RBs43oDa-KdzZeNtuy" name="Page-1">
    <mxGraphModel dx="1427" dy="904" grid="0" gridSize="10" guides="1" tooltips="1" connect="1" arrows="1" fold="1" page="1" pageScale="1" pageWidth="827" pageHeight="1169" background="#ffffff" math="0" shadow="0">
      <root>
        <mxCell id="WIyWlLk6GJQsqaUBKTNV-0" />
        <mxCell id="WIyWlLk6GJQsqaUBKTNV-1" parent="WIyWlLk6GJQsqaUBKTNV-0" />
        <mxCell id="1H4eUf3tWbM22PEDu_Sp-6" value="" style="edgeStyle=orthogonalEdgeStyle;rounded=0;orthogonalLoop=1;jettySize=auto;html=1;" edge="1" parent="WIyWlLk6GJQsqaUBKTNV-1" source="1H4eUf3tWbM22PEDu_Sp-0">
          <mxGeometry relative="1" as="geometry">
            <mxPoint x="390" y="200" as="targetPoint" />
          </mxGeometry>
        </mxCell>
        <mxCell id="1H4eUf3tWbM22PEDu_Sp-0" value="&lt;div style=&quot;text-align: start;&quot;&gt;&lt;font face=&quot;Poppins-Medium&quot;&gt;&lt;span style=&quot;font-size: 16px; background-color: rgb(255, 255, 255);&quot;&gt;start&lt;/span&gt;&lt;/font&gt;&lt;/div&gt;" style="rounded=1;whiteSpace=wrap;html=1;" vertex="1" parent="WIyWlLk6GJQsqaUBKTNV-1">
          <mxGeometry x="330" y="90" width="120" height="60" as="geometry" />
        </mxCell>
        <mxCell id="1H4eUf3tWbM22PEDu_Sp-9" value="" style="edgeStyle=orthogonalEdgeStyle;rounded=0;orthogonalLoop=1;jettySize=auto;html=1;" edge="1" parent="WIyWlLk6GJQsqaUBKTNV-1" source="1H4eUf3tWbM22PEDu_Sp-7" target="1H4eUf3tWbM22PEDu_Sp-8">
          <mxGeometry relative="1" as="geometry" />
        </mxCell>
        <mxCell id="1H4eUf3tWbM22PEDu_Sp-7" value="&lt;span style=&quot;font-family: Poppins-Medium; font-size: 16px; text-align: start; background-color: rgb(255, 255, 255);&quot;&gt;All icpin points in the Bottom layer&lt;/span&gt;" style="shape=parallelogram;perimeter=parallelogramPerimeter;whiteSpace=wrap;html=1;fixedSize=1;" vertex="1" parent="WIyWlLk6GJQsqaUBKTNV-1">
          <mxGeometry x="290" y="200" width="200" height="50" as="geometry" />
        </mxCell>
        <mxCell id="1H4eUf3tWbM22PEDu_Sp-11" value="" style="edgeStyle=orthogonalEdgeStyle;rounded=0;orthogonalLoop=1;jettySize=auto;html=1;" edge="1" parent="WIyWlLk6GJQsqaUBKTNV-1" source="1H4eUf3tWbM22PEDu_Sp-8" target="1H4eUf3tWbM22PEDu_Sp-10">
          <mxGeometry relative="1" as="geometry" />
        </mxCell>
        <mxCell id="1H4eUf3tWbM22PEDu_Sp-8" value="&lt;span style=&quot;font-family: Poppins-Medium; font-size: 16px; text-align: start; background-color: rgb(255, 255, 255);&quot;&gt;the coordinates of all icpin points are clustered by DBSCAN algorithm&lt;/span&gt;" style="rounded=0;whiteSpace=wrap;html=1;" vertex="1" parent="WIyWlLk6GJQsqaUBKTNV-1">
          <mxGeometry x="280" y="290" width="220" height="80" as="geometry" />
        </mxCell>
        <mxCell id="1H4eUf3tWbM22PEDu_Sp-13" value="" style="edgeStyle=orthogonalEdgeStyle;rounded=0;orthogonalLoop=1;jettySize=auto;html=1;fontFamily=Helvetica;fontSize=12;fontColor=default;" edge="1" parent="WIyWlLk6GJQsqaUBKTNV-1" source="1H4eUf3tWbM22PEDu_Sp-10" target="1H4eUf3tWbM22PEDu_Sp-12">
          <mxGeometry relative="1" as="geometry" />
        </mxCell>
        <mxCell id="1H4eUf3tWbM22PEDu_Sp-10" value="&lt;span style=&quot;font-family: Poppins-Medium; font-size: 16px; text-align: start; background-color: rgb(255, 255, 255);&quot;&gt;traverse all associated icpin points of each module and randomly select an icpin point that is not attached to other modules&lt;/span&gt;" style="rounded=0;whiteSpace=wrap;html=1;" vertex="1" parent="WIyWlLk6GJQsqaUBKTNV-1">
          <mxGeometry x="255" y="420" width="270" height="100" as="geometry" />
        </mxCell>
        <mxCell id="1H4eUf3tWbM22PEDu_Sp-14" style="edgeStyle=orthogonalEdgeStyle;rounded=0;orthogonalLoop=1;jettySize=auto;html=1;exitX=0.5;exitY=1;exitDx=0;exitDy=0;fontFamily=Helvetica;fontSize=12;fontColor=default;" edge="1" parent="WIyWlLk6GJQsqaUBKTNV-1" source="1H4eUf3tWbM22PEDu_Sp-12" target="1H4eUf3tWbM22PEDu_Sp-15">
          <mxGeometry relative="1" as="geometry">
            <mxPoint x="390" y="740" as="targetPoint" />
          </mxGeometry>
        </mxCell>
        <mxCell id="1H4eUf3tWbM22PEDu_Sp-12" value="&lt;span style=&quot;font-family: Poppins-Medium; font-size: 16px; text-align: start; background-color: rgb(255, 255, 255);&quot;&gt;Check whether there are noise points that are not attached. If so, screen out all the modules that belong to the same net and are not attached to other noise points, and randomly select a module to be attached to the icpin point&lt;/span&gt;" style="whiteSpace=wrap;html=1;rounded=0;" vertex="1" parent="WIyWlLk6GJQsqaUBKTNV-1">
          <mxGeometry x="245" y="560" width="290" height="150" as="geometry" />
        </mxCell>
        <mxCell id="1H4eUf3tWbM22PEDu_Sp-17" value="" style="edgeStyle=orthogonalEdgeStyle;rounded=0;orthogonalLoop=1;jettySize=auto;html=1;fontFamily=Helvetica;fontSize=12;fontColor=default;" edge="1" parent="WIyWlLk6GJQsqaUBKTNV-1" source="1H4eUf3tWbM22PEDu_Sp-15" target="1H4eUf3tWbM22PEDu_Sp-16">
          <mxGeometry relative="1" as="geometry" />
        </mxCell>
        <mxCell id="1H4eUf3tWbM22PEDu_Sp-15" value="&lt;span style=&quot;font-family: Poppins-Medium; font-size: 16px; text-align: start; background-color: rgb(255, 255, 255);&quot;&gt;Check all closetopin nets and attach the module that belongs to such a net to the corresponding pin&lt;/span&gt;" style="rounded=0;whiteSpace=wrap;html=1;strokeColor=default;align=center;verticalAlign=middle;fontFamily=Helvetica;fontSize=12;fontColor=default;fillColor=default;" vertex="1" parent="WIyWlLk6GJQsqaUBKTNV-1">
          <mxGeometry x="240" y="740" width="300" height="90" as="geometry" />
        </mxCell>
        <mxCell id="1H4eUf3tWbM22PEDu_Sp-16" value="&lt;div style=&quot;text-align: start;&quot;&gt;&lt;font face=&quot;Poppins-Medium&quot;&gt;&lt;span style=&quot;font-size: 16px; background-color: rgb(255, 255, 255);&quot;&gt;end&lt;/span&gt;&lt;/font&gt;&lt;/div&gt;" style="rounded=1;whiteSpace=wrap;html=1;strokeColor=default;align=center;verticalAlign=middle;fontFamily=Helvetica;fontSize=12;fontColor=default;fillColor=default;" vertex="1" parent="WIyWlLk6GJQsqaUBKTNV-1">
          <mxGeometry x="330" y="870" width="120" height="60" as="geometry" />
        </mxCell>
      </root>
    </mxGraphModel>
  </diagram>
</mxfile>
